<?xml version="1.0" encoding="UTF-8" standalone="no"?>
<!-- Created with Inkscape (http://www.inkscape.org/) -->

<svg
   xmlns:dc="http://purl.org/dc/elements/1.1/"
   xmlns:cc="http://creativecommons.org/ns#"
   xmlns:rdf="http://www.w3.org/1999/02/22-rdf-syntax-ns#"
   xmlns:svg="http://www.w3.org/2000/svg"
   xmlns="http://www.w3.org/2000/svg"
   xmlns:xlink="http://www.w3.org/1999/xlink"
   xmlns:sodipodi="http://sodipodi.sourceforge.net/DTD/sodipodi-0.dtd"
   xmlns:inkscape="http://www.inkscape.org/namespaces/inkscape"
   width="128"
   height="128"
   viewBox="0 0 128 128"
   id="svg2"
   version="1.1"
   inkscape:version="0.91 r"
   sodipodi:docname="Icon.svg">
  <defs
     id="defs4">
    <linearGradient
       inkscape:collect="always"
       id="linearGradient4172">
      <stop
         id="stop4176"
         offset="0"
         style="stop-color:#00307c;stop-opacity:0.50310558" />
      <stop
         id="stop4174"
         offset="1"
         style="stop-color:#103b82;stop-opacity:1" />
    </linearGradient>
    <radialGradient
       inkscape:collect="always"
       xlink:href="#linearGradient4172"
       id="radialGradient4178"
       cx="392.85715"
       cy="400.93362"
       fx="392.85715"
       fy="400.93362"
       r="234.10376"
       gradientUnits="userSpaceOnUse"
       gradientTransform="matrix(0.25087318,0,0,0.25087318,-35.203621,888.75791)" />
    <filter
       inkscape:collect="always"
       style="color-interpolation-filters:sRGB"
       id="filter4784"
       x="-0.058843481"
       width="1.117687"
       y="-0.061202891"
       height="1.1224058">
      <feGaussianBlur
         inkscape:collect="always"
         stdDeviation="2.6301916"
         id="feGaussianBlur4786" />
    </filter>
  </defs>
  <sodipodi:namedview
     id="base"
     pagecolor="#000000"
     bordercolor="#666666"
     borderopacity="1.0"
     inkscape:pageopacity="0"
     inkscape:pageshadow="2"
     inkscape:zoom="2.7007289"
     inkscape:cx="141.20919"
     inkscape:cy="91.069961"
     inkscape:document-units="px"
     inkscape:current-layer="layer1"
     showgrid="false"
     inkscape:snap-global="false"
     inkscape:window-width="1920"
     inkscape:window-height="1032"
     inkscape:window-x="0"
     inkscape:window-y="24"
     inkscape:window-maximized="1"
     showborder="true"
     units="px"
     inkscape:showpageshadow="false"
     borderlayer="true" />
  <metadata
     id="metadata7">
    <rdf:RDF>
      <cc:Work
         rdf:about="">
        <dc:format>image/svg+xml</dc:format>
        <dc:type
           rdf:resource="http://purl.org/dc/dcmitype/StillImage" />
        <dc:title />
      </cc:Work>
    </rdf:RDF>
  </metadata>
  <g
     inkscape:label="Layer 1"
     inkscape:groupmode="layer"
     id="layer1"
     transform="translate(0,-924.36216)">
    <path
       sodipodi:type="star"
       style="color:#000000;clip-rule:nonzero;display:inline;overflow:visible;visibility:visible;opacity:1;isolation:auto;mix-blend-mode:normal;color-interpolation:sRGB;color-interpolation-filters:linearRGB;solid-color:#000000;solid-opacity:1;fill:url(#radialGradient4178);fill-opacity:1;fill-rule:evenodd;stroke:#09b1f2;stroke-width:5.77008295;stroke-linecap:round;stroke-linejoin:round;stroke-miterlimit:4;stroke-dasharray:none;stroke-dashoffset:0;stroke-opacity:1;marker:none;color-rendering:auto;image-rendering:auto;shape-rendering:auto;text-rendering:auto;enable-background:accumulate"
       id="path3336"
       sodipodi:sides="6"
       sodipodi:cx="63.353699"
       sodipodi:cy="989.34137"
       sodipodi:r1="57.815357"
       sodipodi:r2="50.069565"
       sodipodi:arg1="0.78539816"
       sodipodi:arg2="1.3089969"
       inkscape:flatsided="true"
       inkscape:rounded="0"
       inkscape:randomized="0"
       d="M 104.23533,1030.223 48.389983,1045.1867 7.5083521,1004.3051 22.472067,948.45974 78.317414,933.49602 119.19905,974.37765 Z"
       transform="matrix(1.0569962,-0.03328147,0.03328147,1.0569962,-35.752188,-55.851134)" />
    <path
       inkscape:connector-curvature="0"
       id="path4782"
       d="m 49.974001,935.99737 a 1.0613197,1.0613197 0 0 0 -0.913353,0.57985 c -2.400027,4.56452 -2.840672,10.98304 -2.053605,17.81146 0.787066,6.82841 2.83914,14.0713 5.680778,20.23059 2.249587,4.876 4.974706,9.06297 8.071684,11.83091 -9.141669,5.1951 -14.905099,8.24115 -17.64081,8.58588 -0.724734,0.0912 -1.198632,0.0135 -1.51402,-0.1384 -0.315375,-0.15165 -0.545901,-0.37962 -0.772437,-0.87204 -0.06322,-0.13744 -0.10929,-0.34223 -0.162555,-0.51955 2.625244,-1.23675 5.302677,-2.68103 7.530289,-4.22744 2.489565,-1.72824 4.473362,-3.43804 5.126144,-5.45197 0.61036,-1.88306 -0.163545,-3.70208 -1.545948,-4.69234 -1.382397,-0.99026 -3.267351,-1.36346 -5.215942,-1.13754 -3.897186,0.45184 -8.132581,3.62231 -8.390088,10.01528 -0.06694,1.66196 -0.05512,3.05838 0.08106,4.27034 -2.57516,1.12527 -5.016863,1.98884 -6.563775,2.28973 -0.294368,0.0567 -0.507078,0.0611 -0.727661,0.0725 2.735878,-4.69 4.237138,-8.24831 4.783928,-10.9365 0.56643,-2.78474 0.09649,-4.88378 -1.365867,-5.97075 -1.462358,-1.08698 -3.425089,-0.95374 -5.369169,-0.32344 -1.584006,0.51355 -3.221075,1.41087 -4.749676,2.54053 0.5057,-1.43746 1.026756,-2.95272 1.540692,-4.44789 4.955862,-3.18477 9.576761,-7.11232 13.166075,-10.99567 3.478219,-3.76315 5.998747,-7.43536 6.858762,-10.57154 0.430007,-1.56809 0.446911,-3.08536 -0.278886,-4.32942 -0.7258,-1.24407 -2.129254,-2.00414 -3.940886,-2.24927 -1.943097,-0.26293 -3.77925,0.463 -5.345547,1.7604 -1.566298,1.29738 -2.941105,3.15985 -4.230632,5.39214 -2.579054,4.46459 -4.804944,10.44456 -6.899873,16.44455 -0.365924,1.04803 -0.709204,2.03818 -1.067446,3.07886 -4.328078,2.71423 -8.841017,4.83148 -12.972205,5.6933 a 1.0613197,1.0613197 0 1 0 0.433503,2.07767 c 3.738717,-0.77993 7.642605,-2.42792 11.43139,-4.57526 -0.661418,1.90918 -1.326155,3.78918 -1.971394,5.52164 -2.585278,2.4103 -4.896264,4.96474 -6.491596,7.13421 -1.023605,1.39195 -1.760849,2.58996 -2.103677,3.6584 -0.171413,0.53426 -0.293792,1.07348 -0.05491,1.69756 0.238891,0.62408 0.991937,1.04116 1.59505,1.06539 1.583365,0.0637 2.903496,-0.96409 4.018216,-2.39103 1.114726,-1.42682 2.126682,-3.36363 3.132972,-5.6603 0.574849,-1.31198 1.14514,-2.76266 1.715142,-4.27505 0.594119,-0.54568 1.188417,-1.09399 1.802652,-1.61101 1.611283,-1.35623 3.46302,-2.41936 5.06684,-2.93934 1.603824,-0.51997 2.851299,-0.43609 3.448835,0.008 0.597536,0.44415 1.037506,1.45683 0.551861,3.84439 -0.485644,2.38757 -1.941031,5.93215 -4.800365,10.76025 -0.232593,0.39269 -0.423074,0.81556 -0.350404,1.36827 0.07267,0.55271 0.550001,1.04869 0.971725,1.22456 0.843448,0.35173 1.611117,0.21072 2.607713,0.0171 1.749225,-0.34022 4.117324,-1.19388 6.629587,-2.27417 0.0623,0.17384 0.103161,0.36844 0.177948,0.53098 0.379492,0.825 0.984527,1.51494 1.78094,1.89792 0.796411,0.38286 1.711041,0.45636 2.69901,0.33179 3.83887,-0.48386 9.576733,-3.78218 19.191004,-9.27446 0.23382,0.15804 0.462872,0.33712 0.700419,0.47823 2.077809,1.23448 4.349487,1.79036 6.624131,1.33945 0.938351,-0.18607 1.859576,-0.58037 2.766896,-1.10165 -0.211665,2.50506 0.345285,5.11864 1.918195,7.12971 1.614093,2.06365 4.319928,3.3837 7.894478,3.157 4.216845,-0.2675 6.862299,-2.19961 7.874458,-4.77288 1.012163,-2.57314 0.484697,-5.55471 -0.859597,-8.06918 -0.517196,-0.96742 -1.194507,-1.84061 -1.94513,-2.63406 0.801824,-10e-4 1.561148,-0.0523 2.260306,-0.14947 1.865426,-0.25886 3.429717,-0.61947 5.754218,-0.24085 0.367028,0.0598 0.553352,0.18763 0.758247,0.47069 0.204893,0.28308 0.385701,0.75674 0.476923,1.38215 0.04888,0.33512 0.0087,0.78397 0.0073,1.18645 -0.73738,0.87582 -1.441478,1.77167 -2.056281,2.66105 -1.390441,2.01133 -2.427295,3.96325 -2.957617,5.54902 -0.265162,0.79295 -0.425466,1.48218 -0.357896,2.18408 0.03377,0.35077 0.133727,0.7321 0.407042,1.07269 0.273315,0.34059 0.729337,0.56597 1.141022,0.60801 0.814343,0.0835 1.470811,-0.32661 1.989128,-0.80919 0.518321,-0.48258 0.964714,-1.10476 1.387651,-1.83335 0.845879,-1.45704 1.576168,-3.3464 2.060032,-5.2916 0.27874,-1.12063 0.462885,-2.24777 0.534268,-3.33321 2.354773,-2.59663 5.175053,-4.80498 7.774373,-5.36633 1.24214,-0.26827 2.14122,-0.29471 2.70311,-0.19658 0.5619,0.0981 0.75787,0.26228 0.89432,0.46175 0.27288,0.39894 0.27767,1.54646 -0.22785,3.0379 -0.50551,1.49145 -1.39419,3.21754 -2.23617,4.71911 -0.84199,1.50156 -1.61164,2.72243 -1.98936,3.53512 -0.43567,0.93743 -0.70258,1.69227 -0.80486,2.37946 -0.10226,0.68728 -0.0283,1.4108 0.442,1.95198 0.4703,0.54127 1.14555,0.68591 1.71798,0.68883 0.57244,0.003 1.14187,-0.11319 1.75134,-0.27701 2.43791,-0.65458 5.67501,-2.15111 7.5696,-2.33642 a 1.0614518,1.0614518 0 1 0 -0.20649,-2.11283 c -2.64838,0.25909 -5.85979,1.84817 -7.91342,2.39958 -0.51341,0.13787 -0.94475,0.20567 -1.19008,0.20448 -0.0558,0.002 -0.0549,0.002 -0.0843,-0.008 -6.5e-4,-0.0463 -0.004,-0.0781 0.0129,-0.20003 0.0523,-0.35194 0.24347,-0.9662 0.6298,-1.79746 0.22999,-0.49488 1.04872,-1.84439 1.91611,-3.39127 0.8674,-1.54691 1.80914,-3.34769 2.39499,-5.07613 0.58585,-1.7285 0.94301,-3.49433 -0.0303,-4.91736 -0.48672,-0.71152 -1.3131,-1.18529 -2.28122,-1.35438 -0.96812,-0.16908 -2.10632,-0.0916 -3.51601,0.21282 -2.74555,0.59295 -5.30958,2.35415 -7.528815,4.52135 -0.145258,-0.61346 -0.34721,-1.19986 -0.709884,-1.70091 -0.484916,-0.66992 -1.248537,-1.17651 -2.136045,-1.3211 -2.693633,-0.43879 -4.637365,-0.01 -6.387457,0.23329 -1.750096,0.24284 -3.331,0.34981 -5.886177,-0.57468 -3.074165,-1.11229 -5.839272,-0.47352 -7.732922,1.15074 -1.150015,0.98639 -1.960871,2.30529 -2.50776,3.74994 -1.33755,1.21814 -2.644756,1.88531 -3.903932,2.13494 -1.608163,0.31881 -3.209781,-0.0283 -4.85951,-0.94761 17.42051,-10.1636 33.506464,-23.96391 38.259852,-36.68695 a 1.0613197,1.0613197 0 1 0 -1.98822,-0.74252 c -4.442473,11.89083 -20.678683,26.03284 -38.180265,36.10272 -2.932461,-2.43241 -5.794401,-6.59423 -8.103254,-11.5987 -2.738699,-5.93618 -4.74133,-13.00458 -5.499712,-19.5841 -0.758378,-6.57954 -0.234912,-12.66533 1.823809,-16.58076 a 1.0613197,1.0613197 0 0 0 -0.96543,-1.56791 z m -9.591523,13.44881 c 0.309103,-0.0314 0.6218,-0.0249 0.941518,0.0181 1.410375,0.19085 2.061673,0.64809 2.392438,1.21505 0.330761,0.56695 0.406458,1.45478 0.06528,2.69894 -0.682356,2.48832 -3.021673,6.06921 -6.370605,9.69249 -2.880203,3.11615 -6.520333,6.2628 -10.422698,9.01546 0.05053,-0.1452 0.09757,-0.2836 0.148247,-0.42874 2.084697,-5.97068 4.30304,-11.87448 6.733969,-16.08265 1.215465,-2.10409 2.486862,-3.7753 3.746336,-4.81855 0.944605,-0.78243 1.838223,-1.21559 2.765516,-1.31004 z m 7.531088,30.62123 c 1.071878,0.0513 2.021585,0.35615 2.631098,0.79277 0.812684,0.58217 1.126683,1.18787 0.762306,2.31205 -0.32196,0.99328 -1.978402,2.73977 -4.316946,4.36318 -1.932969,1.34183 -4.29784,2.62507 -6.647509,3.76307 -0.06364,-0.91695 -0.09849,-1.93292 -0.04741,-3.2013 0.222677,-5.5283 3.502697,-7.64277 6.51384,-7.99188 0.376395,-0.0436 0.747321,-0.055 1.104612,-0.038 z m 33.30378,2.48601 c 0.506119,-0.0139 1.003055,0.0527 1.489411,0.18017 1.94544,0.51026 3.798076,2.20497 4.915671,4.29539 1.117593,2.09043 1.460767,4.49977 0.755931,6.29165 -0.704832,1.792 -2.363653,3.19892 -6.033755,3.43176 -3.016503,0.19084 -4.889188,-0.81362 -6.088163,-2.3465 -1.198977,-1.53297 -1.686935,-3.70187 -1.474235,-5.80662 0.06945,-0.68729 0.237952,-1.34781 0.448629,-1.98627 0.39955,-0.39144 0.798967,-0.78491 1.187776,-1.24948 1.675919,-2.0025 3.280396,-2.76798 4.798735,-2.8101 z m -62.330377,5.37278 c -0.886073,1.95711 -1.771426,3.61246 -2.609974,4.6858 -0.707616,0.90585 -1.319133,1.35852 -1.829642,1.51128 0.21508,-0.62271 0.829992,-1.71625 1.757549,-2.97767 0.72288,-0.98306 1.661942,-2.08833 2.682067,-3.21941 z m 44.924181,3.33746 c -0.286314,0.0344 -0.5805,0.0943 -0.888352,0.17205 -1.23137,0.31169 -2.688856,0.94067 -4.361281,1.81905 -3.344846,1.75685 -7.513583,4.52408 -11.747203,7.79944 -8.467232,6.551 -17.176064,14.9649 -19.665348,21.8047 a 1.0613197,1.0613197 0 1 0 1.99443,0.7258 c 2.116016,-5.8143 10.655618,-14.4193 18.969561,-20.8517 4.156967,-3.21622 8.262135,-5.93208 11.435721,-7.59887 1.586791,-0.83345 2.949839,-1.40128 3.895132,-1.64058 0.472646,-0.11963 0.839165,-0.15066 1.026389,-0.13484 0.187233,0.0161 0.130103,0.0388 0.07523,-0.0311 2.654251,3.38263 7.710921,9.94189 11.137923,17.93119 3.427005,7.9893 5.205414,17.3199 1.479838,26.401 a 1.0613197,1.0613197 0 1 0 1.963761,0.8054 c 4.009406,-9.7729 2.065702,-19.7461 -1.493169,-28.0429 -3.558877,-8.2969 -8.751716,-15.00597 -11.418797,-18.40494 -0.39709,-0.50612 -1.008873,-0.72527 -1.562518,-0.77309 -0.276837,-0.0244 -0.555021,-0.0157 -0.841439,0.0154 z m 32.244367,-0.63432 c -0.426698,1.41894 -0.955893,2.78775 -1.532161,3.78041 -0.297728,0.51289 -0.583693,0.85666 -0.839988,1.1318 0.04056,-0.22041 0.02085,-0.31425 0.12163,-0.61558 0.371933,-1.11223 1.200446,-2.67609 2.250519,-4.29663 z"
       style="color:#000000;font-style:normal;font-variant:normal;font-weight:normal;font-stretch:normal;font-size:medium;line-height:normal;font-family:sans-serif;text-indent:0;text-align:start;text-decoration:none;text-decoration-line:none;text-decoration-style:solid;text-decoration-color:#000000;letter-spacing:normal;word-spacing:normal;text-transform:none;direction:ltr;block-progression:tb;writing-mode:lr-tb;baseline-shift:baseline;text-anchor:start;white-space:normal;clip-rule:nonzero;display:inline;overflow:visible;visibility:visible;opacity:1;isolation:auto;mix-blend-mode:normal;color-interpolation:sRGB;color-interpolation-filters:linearRGB;solid-color:#000000;solid-opacity:1;fill:#a2ff0b;fill-opacity:1;fill-rule:evenodd;stroke:none;stroke-width:1.5;stroke-linecap:round;stroke-linejoin:round;stroke-miterlimit:4;stroke-dasharray:none;stroke-dashoffset:0;stroke-opacity:0.80952382;color-rendering:auto;image-rendering:auto;shape-rendering:auto;text-rendering:auto;enable-background:accumulate;filter:url(#filter4784)" />
    <path
       style="color:#000000;font-style:normal;font-variant:normal;font-weight:normal;font-stretch:normal;font-size:medium;line-height:normal;font-family:sans-serif;text-indent:0;text-align:start;text-decoration:none;text-decoration-line:none;text-decoration-style:solid;text-decoration-color:#000000;letter-spacing:normal;word-spacing:normal;text-transform:none;direction:ltr;block-progression:tb;writing-mode:lr-tb;baseline-shift:baseline;text-anchor:start;white-space:normal;clip-rule:nonzero;display:inline;overflow:visible;visibility:visible;opacity:1;isolation:auto;mix-blend-mode:normal;color-interpolation:sRGB;color-interpolation-filters:linearRGB;solid-color:#000000;solid-opacity:1;fill:#ffffff;fill-opacity:1;fill-rule:evenodd;stroke:#75ff11;stroke-width:1.5;stroke-linecap:round;stroke-linejoin:round;stroke-miterlimit:4;stroke-dasharray:none;stroke-dashoffset:0;stroke-opacity:0.53416151;color-rendering:auto;image-rendering:auto;shape-rendering:auto;text-rendering:auto;enable-background:accumulate"
       d="m 49.974001,935.99737 a 1.0613197,1.0613197 0 0 0 -0.913353,0.57985 c -2.400027,4.56452 -2.840672,10.98304 -2.053605,17.81146 0.787066,6.82841 2.83914,14.0713 5.680778,20.23059 2.249587,4.876 4.974706,9.06297 8.071684,11.83091 -9.141669,5.1951 -14.905099,8.24115 -17.64081,8.58588 -0.724734,0.0912 -1.198632,0.0135 -1.51402,-0.1384 -0.315375,-0.15165 -0.545901,-0.37962 -0.772437,-0.87204 -0.06322,-0.13744 -0.10929,-0.34223 -0.162555,-0.51955 2.625244,-1.23675 5.302677,-2.68103 7.530289,-4.22744 2.489565,-1.72824 4.473362,-3.43804 5.126144,-5.45197 0.61036,-1.88306 -0.163545,-3.70208 -1.545948,-4.69234 -1.382397,-0.99026 -3.267351,-1.36346 -5.215942,-1.13754 -3.897186,0.45184 -8.132581,3.62231 -8.390088,10.01528 -0.06694,1.66196 -0.05512,3.05838 0.08106,4.27034 -2.57516,1.12527 -5.016863,1.98884 -6.563775,2.28973 -0.294368,0.0567 -0.507078,0.0611 -0.727661,0.0725 2.735878,-4.69 4.237138,-8.24831 4.783928,-10.9365 0.56643,-2.78474 0.09649,-4.88378 -1.365867,-5.97075 -1.462358,-1.08698 -3.425089,-0.95374 -5.369169,-0.32344 -1.584006,0.51355 -3.221075,1.41087 -4.749676,2.54053 0.5057,-1.43746 1.026756,-2.95272 1.540692,-4.44789 4.955862,-3.18477 9.576761,-7.11232 13.166075,-10.99567 3.478219,-3.76315 5.998747,-7.43536 6.858762,-10.57154 0.430007,-1.56809 0.446911,-3.08536 -0.278886,-4.32942 -0.7258,-1.24407 -2.129254,-2.00414 -3.940886,-2.24927 -1.943097,-0.26293 -3.77925,0.463 -5.345547,1.7604 -1.566298,1.29738 -2.941105,3.15985 -4.230632,5.39214 -2.579054,4.46459 -4.804944,10.44456 -6.899873,16.44455 -0.365924,1.04803 -0.709204,2.03818 -1.067446,3.07886 -4.328078,2.71423 -8.841017,4.83148 -12.972205,5.6933 a 1.0613197,1.0613197 0 1 0 0.433503,2.07767 c 3.738717,-0.77993 7.642605,-2.42792 11.43139,-4.57526 -0.661418,1.90918 -1.326155,3.78918 -1.971394,5.52164 -2.585278,2.4103 -4.896264,4.96474 -6.491596,7.13421 -1.023605,1.39195 -1.760849,2.58996 -2.103677,3.6584 -0.171413,0.53426 -0.293792,1.07348 -0.05491,1.69756 0.238891,0.62408 0.991937,1.04116 1.59505,1.06539 1.583365,0.0637 2.903496,-0.96409 4.018216,-2.39103 1.114726,-1.42682 2.126682,-3.36363 3.132972,-5.6603 0.574849,-1.31198 1.14514,-2.76266 1.715142,-4.27505 0.594119,-0.54568 1.188417,-1.09399 1.802652,-1.61101 1.611283,-1.35623 3.46302,-2.41936 5.06684,-2.93934 1.603824,-0.51997 2.851299,-0.43609 3.448835,0.008 0.597536,0.44415 1.037506,1.45683 0.551861,3.84439 -0.485644,2.38757 -1.941031,5.93215 -4.800365,10.76025 -0.232593,0.39269 -0.423074,0.81556 -0.350404,1.36827 0.07267,0.55271 0.550001,1.04869 0.971725,1.22456 0.843448,0.35173 1.611117,0.21072 2.607713,0.0171 1.749225,-0.34022 4.117324,-1.19388 6.629587,-2.27417 0.0623,0.17384 0.103161,0.36844 0.177948,0.53098 0.379492,0.825 0.984527,1.51494 1.78094,1.89792 0.796411,0.38286 1.711041,0.45636 2.69901,0.33179 3.83887,-0.48386 9.576733,-3.78218 19.191004,-9.27446 0.23382,0.15804 0.462872,0.33712 0.700419,0.47823 2.077809,1.23448 4.349487,1.79036 6.624131,1.33945 0.938351,-0.18607 1.859576,-0.58037 2.766896,-1.10165 -0.211665,2.50506 0.345285,5.11864 1.918195,7.12971 1.614093,2.06365 4.319928,3.3837 7.894478,3.157 4.216845,-0.2675 6.862299,-2.19961 7.874458,-4.77288 1.012163,-2.57314 0.484697,-5.55471 -0.859597,-8.06918 -0.517196,-0.96742 -1.194507,-1.84061 -1.94513,-2.63406 0.801824,-10e-4 1.561148,-0.0523 2.260306,-0.14947 1.865426,-0.25886 3.429717,-0.61947 5.754218,-0.24085 0.367028,0.0598 0.553352,0.18763 0.758247,0.47069 0.204893,0.28308 0.385701,0.75674 0.476923,1.38215 0.04888,0.33512 0.0087,0.78397 0.0073,1.18645 -0.73738,0.87582 -1.441478,1.77167 -2.056281,2.66105 -1.390441,2.01133 -2.427295,3.96325 -2.957617,5.54902 -0.265162,0.79295 -0.425466,1.48218 -0.357896,2.18408 0.03377,0.35077 0.133727,0.7321 0.407042,1.07269 0.273315,0.34059 0.729337,0.56597 1.141022,0.60801 0.814343,0.0835 1.470811,-0.32661 1.989128,-0.80919 0.518321,-0.48258 0.964714,-1.10476 1.387651,-1.83335 0.845879,-1.45704 1.576168,-3.3464 2.060032,-5.2916 0.27874,-1.12063 0.462885,-2.24777 0.534268,-3.33321 2.354773,-2.59663 5.175053,-4.80498 7.774373,-5.36633 1.24214,-0.26827 2.14122,-0.29471 2.70311,-0.19658 0.5619,0.0981 0.75787,0.26228 0.89432,0.46175 0.27288,0.39894 0.27767,1.54646 -0.22785,3.0379 -0.50551,1.49145 -1.39419,3.21754 -2.23617,4.71911 -0.84199,1.50156 -1.61164,2.72243 -1.98936,3.53512 -0.43567,0.93743 -0.70258,1.69227 -0.80486,2.37946 -0.10226,0.68728 -0.0283,1.4108 0.442,1.95198 0.4703,0.54127 1.14555,0.68591 1.71798,0.68883 0.57244,0.003 1.14187,-0.11319 1.75134,-0.27701 2.43791,-0.65458 5.67501,-2.15111 7.5696,-2.33642 a 1.0614518,1.0614518 0 1 0 -0.20649,-2.11283 c -2.64838,0.25909 -5.85979,1.84817 -7.91342,2.39958 -0.51341,0.13787 -0.94475,0.20567 -1.19008,0.20448 -0.0558,0.002 -0.0549,0.002 -0.0843,-0.008 -6.5e-4,-0.0463 -0.004,-0.0781 0.0129,-0.20003 0.0523,-0.35194 0.24347,-0.9662 0.6298,-1.79746 0.22999,-0.49488 1.04872,-1.84439 1.91611,-3.39127 0.8674,-1.54691 1.80914,-3.34769 2.39499,-5.07613 0.58585,-1.7285 0.94301,-3.49433 -0.0303,-4.91736 -0.48672,-0.71152 -1.3131,-1.18529 -2.28122,-1.35438 -0.96812,-0.16908 -2.10632,-0.0916 -3.51601,0.21282 -2.74555,0.59295 -5.30958,2.35415 -7.528815,4.52135 -0.145258,-0.61346 -0.34721,-1.19986 -0.709884,-1.70091 -0.484916,-0.66992 -1.248537,-1.17651 -2.136045,-1.3211 -2.693633,-0.43879 -4.637365,-0.01 -6.387457,0.23329 -1.750096,0.24284 -3.331,0.34981 -5.886177,-0.57468 -3.074165,-1.11229 -5.839272,-0.47352 -7.732922,1.15074 -1.150015,0.98639 -1.960871,2.30529 -2.50776,3.74994 -1.33755,1.21814 -2.644756,1.88531 -3.903932,2.13494 -1.608163,0.31881 -3.209781,-0.0283 -4.85951,-0.94761 17.42051,-10.1636 33.506464,-23.96391 38.259852,-36.68695 a 1.0613197,1.0613197 0 1 0 -1.98822,-0.74252 c -4.442473,11.89083 -20.678683,26.03284 -38.180265,36.10272 -2.932461,-2.43241 -5.794401,-6.59423 -8.103254,-11.5987 -2.738699,-5.93618 -4.74133,-13.00458 -5.499712,-19.5841 -0.758378,-6.57954 -0.234912,-12.66533 1.823809,-16.58076 a 1.0613197,1.0613197 0 0 0 -0.96543,-1.56791 z m -9.591523,13.44881 c 0.309103,-0.0314 0.6218,-0.0249 0.941518,0.0181 1.410375,0.19085 2.061673,0.64809 2.392438,1.21505 0.330761,0.56695 0.406458,1.45478 0.06528,2.69894 -0.682356,2.48832 -3.021673,6.06921 -6.370605,9.69249 -2.880203,3.11615 -6.520333,6.2628 -10.422698,9.01546 0.05053,-0.1452 0.09757,-0.2836 0.148247,-0.42874 2.084697,-5.97068 4.30304,-11.87448 6.733969,-16.08265 1.215465,-2.10409 2.486862,-3.7753 3.746336,-4.81855 0.944605,-0.78243 1.838223,-1.21559 2.765516,-1.31004 z m 7.531088,30.62123 c 1.071878,0.0513 2.021585,0.35615 2.631098,0.79277 0.812684,0.58217 1.126683,1.18787 0.762306,2.31205 -0.32196,0.99328 -1.978402,2.73977 -4.316946,4.36318 -1.932969,1.34183 -4.29784,2.62507 -6.647509,3.76307 -0.06364,-0.91695 -0.09849,-1.93292 -0.04741,-3.2013 0.222677,-5.5283 3.502697,-7.64277 6.51384,-7.99188 0.376395,-0.0436 0.747321,-0.055 1.104612,-0.038 z m 33.30378,2.48601 c 0.506119,-0.0139 1.003055,0.0527 1.489411,0.18017 1.94544,0.51026 3.798076,2.20497 4.915671,4.29539 1.117593,2.09043 1.460767,4.49977 0.755931,6.29165 -0.704832,1.792 -2.363653,3.19892 -6.033755,3.43176 -3.016503,0.19084 -4.889188,-0.81362 -6.088163,-2.3465 -1.198977,-1.53297 -1.686935,-3.70187 -1.474235,-5.80662 0.06945,-0.68729 0.237952,-1.34781 0.448629,-1.98627 0.39955,-0.39144 0.798967,-0.78491 1.187776,-1.24948 1.675919,-2.0025 3.280396,-2.76798 4.798735,-2.8101 z m -62.330377,5.37278 c -0.886073,1.95711 -1.771426,3.61246 -2.609974,4.6858 -0.707616,0.90585 -1.319133,1.35852 -1.829642,1.51128 0.21508,-0.62271 0.829992,-1.71625 1.757549,-2.97767 0.72288,-0.98306 1.661942,-2.08833 2.682067,-3.21941 z m 44.924181,3.33746 c -0.286314,0.0344 -0.5805,0.0943 -0.888352,0.17205 -1.23137,0.31169 -2.688856,0.94067 -4.361281,1.81905 -3.344846,1.75685 -7.513583,4.52408 -11.747203,7.79944 -8.467232,6.551 -17.176064,14.9649 -19.665348,21.8047 a 1.0613197,1.0613197 0 1 0 1.99443,0.7258 c 2.116016,-5.8143 10.655618,-14.4193 18.969561,-20.8517 4.156967,-3.21622 8.262135,-5.93208 11.435721,-7.59887 1.586791,-0.83345 2.949839,-1.40128 3.895132,-1.64058 0.472646,-0.11963 0.839165,-0.15066 1.026389,-0.13484 0.187233,0.0161 0.130103,0.0388 0.07523,-0.0311 2.654251,3.38263 7.710921,9.94189 11.137923,17.93119 3.427005,7.9893 5.205414,17.3199 1.479838,26.401 a 1.0613197,1.0613197 0 1 0 1.963761,0.8054 c 4.009406,-9.7729 2.065702,-19.7461 -1.493169,-28.0429 -3.558877,-8.2969 -8.751716,-15.00597 -11.418797,-18.40494 -0.39709,-0.50612 -1.008873,-0.72527 -1.562518,-0.77309 -0.276837,-0.0244 -0.555021,-0.0157 -0.841439,0.0154 z m 32.244367,-0.63432 c -0.426698,1.41894 -0.955893,2.78775 -1.532161,3.78041 -0.297728,0.51289 -0.583693,0.85666 -0.839988,1.1318 0.04056,-0.22041 0.02085,-0.31425 0.12163,-0.61558 0.371933,-1.11223 1.200446,-2.67609 2.250519,-4.29663 z"
       id="path4140"
       inkscape:connector-curvature="0" />
    <path
       sodipodi:nodetypes="csssssssccsssssssccsc"
       inkscape:connector-curvature="0"
       d="m -144.52504,208.2522 c -35.60762,62.83697 30.28503,250.27366 90.815901,182.40691 37.8909,-42.483 83.63283,48.37133 24.08751,50.26958 -49.76135,1.58634 -36.27207,-77.58573 5.16198,-61.10178 20.2885701,8.07152 28.1013701,-0.72428 46.90974,2.95076 18.80837,3.67503 -0.78369,58.06552 -11.75523,56.59551 -10.97154987,-1.47002 21.36913,-55.30007 52.5067,-61.00555 40.233759,-7.37221 4.58727,39.46488 -0.30198,49.1735 -13.22661,26.26417 18.93176,5.67817 36.09964,4.54286 M -295.4694,368.28811 c 70.47265,-12.40087 165.79746,-110.22209 117.44992,-118.32096 -48.34753,-8.09887 -76.54718,175.53006 -109.13098,173.19113 -10.40226,-0.7467 12.69386,-29.56273 39.08355,-50.39239 26.3897,-20.82966 66.47523,-22.49722 20.54506,49.76941 -10.6621,16.77576 78.15877,-16.66794 86.21672,-39.09557 8.05791,-22.42763 -46.60238,-29.2453 -49.82556,15.60996 -3.22316,44.85526 11.34088,38.14827 89.08469,-3.05459 C -33.840319,359.84728 30.399171,308.17449 49.491141,261.59891 M -237.07613,530.22365 c 18.85109,-47.12773 133.99857,-124.14373 143.898781,-110.67442 19.24314,26.18044 74.08361,102.40313 42.70629,172.51673"
       style="display:none;fill:none;fill-opacity:0.23809527;fill-rule:evenodd;stroke:#bbff8b;stroke-width:8;stroke-linecap:round;stroke-linejoin:round;stroke-miterlimit:4;stroke-dasharray:none;stroke-opacity:1"
       id="path4168" />
  </g>
</svg>
