<?xml version="1.0" encoding="UTF-8" standalone="no"?>
<!-- Created with Inkscape (http://www.inkscape.org/) -->

<svg
   xmlns:dc="http://purl.org/dc/elements/1.1/"
   xmlns:cc="http://creativecommons.org/ns#"
   xmlns:rdf="http://www.w3.org/1999/02/22-rdf-syntax-ns#"
   xmlns:svg="http://www.w3.org/2000/svg"
   xmlns="http://www.w3.org/2000/svg"
   xmlns:xlink="http://www.w3.org/1999/xlink"
   xmlns:sodipodi="http://sodipodi.sourceforge.net/DTD/sodipodi-0.dtd"
   xmlns:inkscape="http://www.inkscape.org/namespaces/inkscape"
   width="210mm"
   height="297mm"
   viewBox="0 0 744.09448819 1052.3622047"
   id="svg2"
   version="1.1"
   inkscape:version="0.91 r"
   sodipodi:docname="shipscriptlogo.svg">
  <defs
     id="defs4">
    <linearGradient
       inkscape:collect="always"
       id="linearGradient4172">
      <stop
         id="stop4176"
         offset="0"
         style="stop-color:#012a6d;stop-opacity:0;" />
      <stop
         id="stop4174"
         offset="1"
         style="stop-color:#012a6d;stop-opacity:1;" />
    </linearGradient>
    <radialGradient
       inkscape:collect="always"
       xlink:href="#linearGradient4172"
       id="radialGradient4178"
       cx="392.85715"
       cy="400.93362"
       fx="392.85715"
       fy="400.93362"
       r="234.10376"
       gradientUnits="userSpaceOnUse" />
  </defs>
  <sodipodi:namedview
     id="base"
     pagecolor="#000000"
     bordercolor="#666666"
     borderopacity="1.0"
     inkscape:pageopacity="0"
     inkscape:pageshadow="2"
     inkscape:zoom="0.47742593"
     inkscape:cx="432.092"
     inkscape:cy="604.50039"
     inkscape:document-units="px"
     inkscape:current-layer="layer1"
     showgrid="false"
     inkscape:snap-global="false"
     inkscape:window-width="1920"
     inkscape:window-height="1032"
     inkscape:window-x="0"
     inkscape:window-y="24"
     inkscape:window-maximized="1"
     showborder="false" />
  <metadata
     id="metadata7">
    <rdf:RDF>
      <cc:Work
         rdf:about="">
        <dc:format>image/svg+xml</dc:format>
        <dc:type
           rdf:resource="http://purl.org/dc/dcmitype/StillImage" />
        <dc:title></dc:title>
      </cc:Work>
    </rdf:RDF>
  </metadata>
  <g
     inkscape:label="Layer 1"
     inkscape:groupmode="layer"
     id="layer1">
    <path
       sodipodi:type="star"
       style="color:#000000;clip-rule:nonzero;display:inline;overflow:visible;visibility:visible;opacity:1;isolation:auto;mix-blend-mode:normal;color-interpolation:sRGB;color-interpolation-filters:linearRGB;solid-color:#000000;solid-opacity:1;fill:url(#radialGradient4178);fill-opacity:1;fill-rule:evenodd;stroke:#00b5f8;stroke-width:23;stroke-linecap:round;stroke-linejoin:round;stroke-miterlimit:4;stroke-dasharray:none;stroke-dashoffset:0;stroke-opacity:1;marker:none;color-rendering:auto;image-rendering:auto;shape-rendering:auto;text-rendering:auto;enable-background:accumulate"
       id="path3336"
       sodipodi:sides="6"
       sodipodi:cx="392.85714"
       sodipodi:cy="400.93362"
       sodipodi:r1="230.45651"
       sodipodi:r2="199.58119"
       sodipodi:arg1="0.78539816"
       sodipodi:arg2="1.3089969"
       inkscape:flatsided="true"
       inkscape:rounded="0"
       inkscape:randomized="0"
       d="m 555.81451,563.89099 -222.6039,59.64653 -162.95736,-162.95736 59.64653,-222.6039 222.6039,-59.64653 162.95736,162.95736 z" />
    <path
       style="color:#000000;font-style:normal;font-variant:normal;font-weight:normal;font-stretch:normal;font-size:medium;line-height:normal;font-family:sans-serif;text-indent:0;text-align:start;text-decoration:none;text-decoration-line:none;text-decoration-style:solid;text-decoration-color:#000000;letter-spacing:normal;word-spacing:normal;text-transform:none;direction:ltr;block-progression:tb;writing-mode:lr-tb;baseline-shift:baseline;text-anchor:start;white-space:normal;clip-rule:nonzero;display:inline;overflow:visible;visibility:visible;opacity:1;isolation:auto;mix-blend-mode:normal;color-interpolation:sRGB;color-interpolation-filters:linearRGB;solid-color:#000000;solid-opacity:1;fill:#ffffff;fill-opacity:1;fill-rule:evenodd;stroke:#9cff55;stroke-width:5;stroke-linecap:round;stroke-linejoin:round;stroke-miterlimit:4;stroke-dasharray:none;stroke-dashoffset:0;stroke-opacity:0.80952382;color-rendering:auto;image-rendering:auto;shape-rendering:auto;text-rendering:auto;enable-background:accumulate"
       d="m 345.63281,204.20312 a 4.0004,4.0004 0 0 0 -3.50976,2.07618 c -9.58332,16.91173 -12.0048,41.04062 -9.84961,66.85937 2.15518,25.81875 9.02699,53.349 19.00195,76.89063 7.89669,18.63675 17.66664,34.73394 29.00586,45.52929 -35.05661,18.4874 -57.1311,29.2794 -67.47852,30.25391 -2.74118,0.25816 -4.51733,-0.0925 -5.6875,-0.70117 -1.17016,-0.60872 -2.0116,-1.49476 -2.80664,-3.37695 -0.22186,-0.52526 -0.37114,-1.30224 -0.55078,-1.97657 10.03706,-4.348 20.29535,-9.47158 28.8711,-15.0332 9.58421,-6.21564 17.26079,-12.4218 19.95898,-19.93164 2.52285,-7.02187 -0.17699,-13.96661 -5.26758,-17.86133 -5.09058,-3.89472 -12.14769,-5.52429 -19.51562,-4.9043 -14.73586,1.24 -31.06839,12.68196 -32.79688,36.73633 -0.44933,6.25317 -0.57043,11.51563 -0.20117,16.09766 -9.83515,3.93371 -19.13647,6.89758 -25,7.84765 -1.11573,0.18079 -1.91762,0.17052 -2.75,0.1875 10.8635,-17.34469 16.94145,-30.57211 19.32031,-40.63476 2.46431,-10.42405 0.94285,-18.3877 -4.4375,-22.65625 -5.38035,-4.26855 -12.79055,-3.99943 -20.18945,-1.85547 -6.02851,1.74687 -12.30245,4.93323 -18.19531,9.00781 2.07569,-5.35547 4.21847,-11.00225 6.33203,-16.57422 19.04852,-11.41044 36.9232,-25.65893 50.90625,-39.86328 13.55025,-13.7647 23.4817,-27.30041 27.09375,-39.01367 1.80602,-5.85663 2.04969,-11.57072 -0.53711,-16.34375 -2.5868,-4.77303 -7.78401,-7.80297 -14.58008,-8.94141 -7.28924,-1.22104 -14.29288,1.29606 -20.34765,5.99805 -6.05478,4.70199 -11.45516,11.5555 -16.57813,19.8125 -10.24594,16.514 -19.34113,38.7789 -27.94531,61.13477 -1.5029,3.90491 -2.91363,7.59447 -4.38672,11.47265 -16.62758,9.71223 -33.8808,17.15344 -49.54688,19.91016 a 4.0004,4.0004 0 1 0 1.38672,7.87891 c 14.17777,-2.49483 29.08078,-8.2404 43.60938,-15.88086 -2.7183,7.11423 -5.44564,14.11803 -8.08203,20.56836 -10.0257,8.77391 -19.03513,18.12334 -25.30274,26.10742 -4.02145,5.12278 -6.94106,9.54847 -8.35937,13.5332 -0.70916,1.99236 -1.23417,4.00931 -0.40821,6.38867 0.82597,2.37936 3.61352,4.04023 5.88282,4.20313 5.95762,0.42765 11.053,-3.28775 15.42187,-8.53125 4.36887,-5.2435 8.41107,-12.42012 12.47461,-20.95313 2.32132,-4.87452 4.64192,-10.27223 6.96875,-15.90234 2.30302,-1.98537 4.60702,-3.98054 6.98242,-5.85547 6.23123,-4.91837 13.33358,-8.70394 19.4375,-10.47266 6.10393,-1.76871 10.79372,-1.30472 12.99219,0.43946 2.19847,1.74418 3.73589,5.61148 1.62305,14.54883 -2.11284,8.93734 -8.01634,22.11851 -19.36133,39.96874 -0.92285,1.45201 -1.69063,3.02235 -1.48242,5.11329 0.2082,2.09093 1.94768,4.0159 3.51562,4.72851 3.13588,1.42523 6.04473,0.98513 9.82227,0.37305 6.63039,-1.07433 15.65324,-4.00939 25.24609,-7.78125 0.21406,0.66213 0.34496,1.40012 0.60742,2.02148 1.33183,3.153 3.5294,5.82416 6.48438,7.36133 2.95498,1.53717 6.39204,1.92225 10.1289,1.57031 14.51996,-1.36748 36.52805,-13.11302 73.40039,-32.66406 0.86215,0.62306 1.70384,1.3249 2.58204,1.88477 7.6815,4.89713 16.17388,7.26107 24.79687,5.83203 3.55722,-0.58952 7.07461,-1.96606 10.55469,-3.82227 -1.09459,9.41246 0.69363,19.32503 6.38086,27.08789 5.83614,7.96611 15.87353,13.26025 29.36719,12.83008 15.91828,-0.50746 26.11396,-7.47261 30.23242,-17.04687 4.11846,-9.57427 2.48497,-20.86952 -2.28125,-30.50196 -1.83373,-3.70592 -4.28185,-7.07599 -7.01563,-10.15429 3.02098,0.0894 5.88768,-0.0124 8.53321,-0.29493 7.05852,-0.75393 12.99461,-1.92696 21.70703,-0.22461 1.37565,0.2688 2.06244,0.77255 2.80078,1.86329 0.73834,1.09073 1.36333,2.89666 1.63281,5.26367 0.14439,1.26828 -0.0602,2.95453 -0.11328,4.4707 -2.8819,3.21207 -5.64079,6.50362 -8.0625,9.78125 -5.47694,7.41269 -9.61473,14.64312 -11.80078,20.55469 -1.09303,2.95579 -1.77872,5.53363 -1.60742,8.18555 0.0856,1.32595 0.41696,2.77413 1.40625,4.08984 0.98928,1.31571 2.68056,2.21864 4.22656,2.42578 3.05805,0.40973 5.57988,-1.05591 7.58984,-2.8125 2.00996,-1.75659 3.76551,-4.04764 5.44531,-6.74219 3.35961,-5.38909 6.33502,-12.42036 8.38868,-19.6914 1.18306,-4.18867 2.01051,-8.41349 2.4082,-12.49414 9.17943,-9.5032 20.06651,-17.48837 29.92578,-19.29493 4.71143,-0.86329 8.10178,-0.8563 10.20703,-0.41992 2.10526,0.43638 2.82407,1.07805 3.31446,1.84571 0.98076,1.53531 0.86263,5.85905 -1.21875,11.41796 -2.08138,5.55892 -5.63419,11.95649 -8.98438,17.51368 -3.35019,5.55719 -6.39464,10.0649 -7.91406,13.08203 -1.75256,3.48006 -2.84762,6.29212 -3.31446,8.86914 -0.46683,2.57702 -0.27404,5.31149 1.4336,7.40625 1.70764,2.09476 4.23435,2.72006 6.39062,2.79883 2.15628,0.0788 4.3153,-0.2917 6.63086,-0.83594 9.26227,-2.17697 21.63527,-7.43083 28.79492,-7.9043 a 4.0008828,4.0008828 0 1 0 -0.52734,-7.98437 c -10.00822,0.66184 -22.29542,6.26775 -30.09766,8.10156 -1.95055,0.45845 -3.58363,0.66266 -4.50781,0.62891 -0.2103,-0.008 -0.20686,-0.0188 -0.3164,-0.0332 0.003,-0.17404 -0.0104,-0.29576 0.0723,-0.75195 0.2391,-1.31988 1.03184,-3.61128 2.58594,-6.69727 0.9252,-1.83718 4.16977,-6.82389 7.62109,-12.54882 3.45132,-5.72494 7.21282,-12.39744 9.625,-18.83985 2.41218,-6.44241 3.96723,-13.05269 0.46875,-18.52929 -1.74923,-2.73831 -4.80637,-4.62119 -8.43359,-5.37305 -3.62722,-0.75186 -7.92448,-0.59499 -13.27148,0.38476 -10.41386,1.90818 -20.28253,8.23916 -28.9004,16.14063 -0.47448,-2.32832 -1.16575,-4.56152 -2.47265,-6.49219 -1.74741,-2.58142 -4.56418,-4.5805 -7.89063,-5.23047 -10.09595,-1.97268 -17.46968,-0.58623 -24.09179,0.1211 -6.62212,0.70732 -12.59071,0.9228 -22.10743,-2.86328 -11.44967,-4.5551 -21.94271,-2.4766 -29.26953,3.41796 -4.44958,3.57978 -7.66085,8.45237 -9.89257,13.83008 -5.1836,4.43055 -10.1875,6.789 -14.96094,7.58008 -6.09641,1.01032 -12.08917,-0.48767 -18.19532,-4.14648 66.83571,-36.22366 129.07501,-86.30684 148.49219,-133.67579 a 4.0004,4.0004 0 1 0 -7.40234,-3.0332 c -18.14712,44.27057 -80.99303,95.62323 -148.12305,131.48438 -10.75922,-9.51168 -21.04761,-25.53045 -29.15234,-44.65821 -9.61361,-22.68882 -16.31985,-49.5559 -18.39649,-74.43359 -2.07663,-24.87769 0.6174,-47.74325 8.83789,-62.25 a 4.0004,4.0004 0 0 0 -3.45117,-6.02149 z m -37.73047,49.5293 c 1.16824,-0.0819 2.34552,-0.0212 3.54493,0.17969 5.29081,0.88628 7.69027,2.68615 8.86914,4.86133 1.17886,2.17518 1.35872,5.529 -0.0742,10.17578 -2.86588,9.29355 -12.10381,22.5067 -25.15039,35.75976 -11.22053,11.39811 -25.30763,22.82107 -40.33594,32.72852 0.20758,-0.54102 0.40124,-1.05687 0.60937,-1.59766 8.56215,-22.24664 17.61987,-44.22548 27.27735,-59.79101 4.82874,-7.78277 9.81685,-13.92808 14.68554,-17.70899 3.65153,-2.83568 7.06953,-4.36158 10.57422,-4.60742 z m 24.74024,116.25586 c 4.0321,0.32038 7.57387,1.5816 9.81836,3.29883 2.99265,2.28963 4.10376,4.60884 2.59765,8.80078 -1.33078,3.70397 -7.77844,10.0872 -16.78125,15.92578 -7.44144,4.82599 -16.50309,9.37985 -25.49023,13.38867 -0.13097,-3.46215 -0.14175,-7.2941 0.20117,-12.0664 1.4947,-20.8009 14.10268,-28.37786 25.48828,-29.33594 1.4232,-0.11976 2.82198,-0.11851 4.16602,-0.0117 z m 125.17383,13.31641 c 1.90839,0.007 3.77266,0.31718 5.58984,0.85547 7.26872,2.15315 14.04731,8.75757 18.00977,16.76562 3.96245,8.00805 4.96952,17.12576 2.10156,23.79297 -2.86796,6.66721 -9.2843,11.77123 -23.13867,12.21289 -11.38702,0.36301 -18.32302,-3.64513 -22.65821,-9.5625 -4.33518,-5.91737 -5.91623,-14.14635 -4.86523,-22.05078 0.34317,-2.58092 1.05634,-5.04936 1.92578,-7.42969 1.5517,-1.42734 3.10314,-2.8623 4.62305,-4.5664 6.5514,-7.34539 12.68692,-10.03898 18.41211,-10.01758 z m -235.46094,12.84765 c -3.57036,7.2681 -7.1022,13.39935 -10.38867,17.34375 -2.77333,3.32854 -5.13086,4.96165 -7.07227,5.47657 0.88416,-2.3206 3.3305,-6.36767 6.97461,-11.00977 2.84,-3.61777 6.50893,-7.67036 10.48633,-11.81055 z m 168.85156,17.90235 c -1.08274,0.0953 -2.19817,0.28588 -3.36719,0.54297 -4.67604,1.02835 -10.24159,3.22504 -16.64648,6.33593 -12.80979,6.22179 -28.84335,16.15243 -45.18164,27.99024 -32.67658,23.67562 -66.48432,54.34067 -76.67383,79.81445 a 4.0004,4.0004 0 1 0 7.42773,2.9707 c 8.66158,-21.65394 41.85447,-53.05965 73.93946,-76.30664 16.04249,-11.62349 31.83048,-21.36827 43.98437,-27.27148 6.07695,-2.95161 11.27946,-4.92931 14.86914,-5.71875 1.79484,-0.39472 3.17935,-0.46781 3.88282,-0.38477 0.70347,0.0831 0.48554,0.1606 0.28711,-0.10937 9.59837,13.05866 27.8708,38.36949 39.83398,68.875 11.96318,30.50551 17.55634,65.86825 2.44336,99.63867 a 4.0004,4.0004 0 1 0 7.30273,3.26758 c 16.26435,-36.34318 10.12469,-74.14683 -2.29882,-105.82617 -12.42352,-31.67935 -31.19117,-57.57158 -40.83594,-70.69336 -1.43596,-1.95363 -3.71479,-2.8521 -5.79492,-3.09766 -1.04007,-0.12278 -2.08914,-0.12269 -3.17188,-0.0273 z m 121.55274,1.43554 c -1.77586,5.29496 -3.93192,10.38913 -6.22071,14.06055 -1.1825,1.89683 -2.30062,3.15801 -3.29883,4.16406 0.17893,-0.82557 0.11582,-1.18124 0.53125,-2.30468 1.53316,-4.14601 4.84001,-9.93922 8.98829,-15.91993 z"
       id="path4140"
       inkscape:connector-curvature="0" />
    <path
       sodipodi:nodetypes="csssssssccsssssssccsc"
       inkscape:connector-curvature="0"
       d="m -144.52504,208.2522 c -35.60762,62.83697 30.28503,250.27366 90.815901,182.40691 37.8909,-42.483 83.63283,48.37133 24.08751,50.26958 -49.76135,1.58634 -36.27207,-77.58573 5.16198,-61.10178 20.2885701,8.07152 28.1013701,-0.72428 46.90974,2.95076 18.80837,3.67503 -0.78369,58.06552 -11.75523,56.59551 -10.97154987,-1.47002 21.36913,-55.30007 52.5067,-61.00555 40.233759,-7.37221 4.58727,39.46488 -0.30198,49.1735 -13.22661,26.26417 18.93176,5.67817 36.09964,4.54286 M -295.4694,368.28811 c 70.47265,-12.40087 165.79746,-110.22209 117.44992,-118.32096 -48.34753,-8.09887 -76.54718,175.53006 -109.13098,173.19113 -10.40226,-0.7467 12.69386,-29.56273 39.08355,-50.39239 26.3897,-20.82966 66.47523,-22.49722 20.54506,49.76941 -10.6621,16.77576 78.15877,-16.66794 86.21672,-39.09557 8.05791,-22.42763 -46.60238,-29.2453 -49.82556,15.60996 -3.22316,44.85526 11.34088,38.14827 89.08469,-3.05459 C -33.840319,359.84728 30.399171,308.17449 49.491141,261.59891 M -237.07613,530.22365 c 18.85109,-47.12773 133.99857,-124.14373 143.898781,-110.67442 19.24314,26.18044 74.08361,102.40313 42.70629,172.51673"
       style="display:none;fill:none;fill-opacity:0.23809527;fill-rule:evenodd;stroke:#bbff8b;stroke-width:8;stroke-linecap:round;stroke-linejoin:round;stroke-miterlimit:4;stroke-dasharray:none;stroke-opacity:1"
       id="path4168" />
  </g>
</svg>
